PathFileType	4	(X/Y/Z)	TVC_58_BWA_04_walk_RCNL2025.trc
DataRate	CameraRate	NumFrames	NumMarkers	Units	OrigDataRate	OrigDataStartFrame	OrigNumFrames
100	100	4	27	mm	100	1	437
Frame#	Time	R_Shoulder			L_Shoulder			C7			J_Notch			R_Elbow			L_Elbow			R_Wrist			L_Wrist			R_Asis			L_Asis			R_Psis			L_Psis			Sacral			Thoracic			Sternum			R_Thigh_Lateral			R_Knee_Lateral			R_Shank_Lateral			R_Ankle_Lateral			R_Heel			R_Toe			L_Thigh_Lateral			L_Knee_Lateral			L_Shank_Lateral			L_Ankle_Lateral			L_Heel			L_Toe		
		X1	Y1	Z1	X2	Y2	Z2	X3	Y3	Z3	X4	Y4	Z4	X5	Y5	Z5	X6	Y6	Z6	X7	Y7	Z7	X8	Y8	Z8	X9	Y9	Z9	X10	Y10	Z10	X11	Y11	Z11	X12	Y12	Z12	X13	Y13	Z13	X14	Y14	Z14	X15	Y15	Z15	X16	Y16	Z16	X17	Y17	Z17	X18	Y18	Z18	X19	Y19	Z19	X20	Y20	Z20	X21	Y21	Z21	X22	Y22	Z22	X23	Y23	Z23	X24	Y24	Z24	X25	Y25	Z25	X26	Y26	Z26	X27	Y27	Z27
1	0.00000000	-1445.009399	1321.126343	82.481728	-1448.947998	1340.671875	-272.978729	-1504.095947	1402.723389	-99.161438	-1364.364746	1299.161133	-95.666916	-1414.723022	1003.331055	147.981796	-1551.685547	1029.066528	-329.277740	-1260.745544	804.056824	155.143822	-1470.452026	793.946320	-385.929031	-1358.366333	892.930969	42.216808	-1342.839966	892.848938	-269.414368	-1581.955444	937.562256	-65.387482	-1578.482422	921.681335	-175.287781	-1580.218933	929.621796	-120.337631	-1567.905640	1097.774170	-110.112541	-1269.722046	1064.703003	-111.135437	-1414.138306	677.718567	116.296822	-1471.111328	450.800690	27.469528	-1538.172119	253.213669	63.942081	-1614.146606	67.795158	-39.127712	-1671.391357	68.580299	-89.449577	-1492.450562	41.887150	-80.080513	-1372.169922	645.174377	-343.642090	-1241.899658	477.708160	-237.942612	-1199.919556	304.361938	-288.949951	-1172.440552	73.308784	-200.741180	-1216.235229	55.747169	-150.923050	-1035.278442	97.961510	-172.965759
2	0.01000000	-1437.671021	1319.462280	82.272438	-1440.569336	1338.993164	-273.235748	-1496.294189	1401.159668	-99.578911	-1356.383179	1297.738037	-95.685722	-1406.167236	1001.678040	147.429016	-1542.952148	1027.398926	-329.795227	-1250.099365	803.859375	153.475601	-1463.546753	791.766266	-386.026733	-1350.426514	891.725647	42.307465	-1334.068726	890.918884	-269.129700	-1574.057983	935.946594	-66.669029	-1570.018433	920.119568	-176.242020	-1572.038208	928.033081	-121.455524	-1559.682983	1096.196899	-110.841255	-1261.589844	1063.282837	-110.681923	-1406.171875	676.377747	116.190414	-1467.009155	450.171631	27.285761	-1536.343140	253.270950	63.824577	-1613.850708	68.384956	-39.342293	-1671.060425	69.725906	-89.745247	-1492.382324	41.853230	-80.120743	-1366.925659	642.610657	-343.447662	-1233.361694	476.967712	-237.283371	-1188.727173	304.433868	-288.499634	-1156.554199	73.725967	-199.654602	-1199.949219	55.519966	-149.631256	-1019.443848	100.329849	-172.238403
3	0.02000000	-1430.360596	1317.769653	81.994820	-1432.131958	1337.257446	-273.574829	-1488.474243	1399.573853	-100.092606	-1348.369263	1296.304932	-95.768547	-1397.790894	999.964600	146.819016	-1533.952881	1025.635254	-330.453949	-1239.714355	803.575592	151.802971	-1456.607422	789.489166	-386.292068	-1342.336060	890.561646	42.428379	-1325.273315	888.981873	-268.934540	-1566.011108	934.268188	-67.876755	-1561.446045	918.499146	-177.100922	-1563.728577	926.383667	-122.488838	-1551.361328	1094.576782	-111.577667	-1253.363770	1061.893066	-110.279129	-1398.090576	674.986267	116.103889	-1462.695923	449.541840	27.131695	-1534.406738	253.433197	63.756279	-1613.490479	69.059113	-39.496433	-1670.670166	70.986069	-89.965477	-1492.291260	41.830048	-80.148972	-1361.254761	640.120850	-343.050751	-1224.365723	476.412476	-236.614166	-1178.084106	303.945953	-287.881287	-1143.284912	73.760452	-198.429184	-1186.290771	55.221127	-148.145660	-1006.215271	101.287498	-171.567474
4	0.03000000	-1423.061523	1316.079590	81.646873	-1423.651367	1335.487915	-273.995270	-1480.635010	1397.990356	-100.699303	-1340.323730	1294.886963	-95.921638	-1389.592285	998.219482	146.152878	-1524.700928	1023.797791	-331.245270	-1229.610535	803.212006	150.132919	-1449.622986	787.146332	-386.723236	-1334.081421	889.449036	42.572937	-1316.441772	887.079468	-268.843842	-1557.792603	932.570251	-68.969414	-1552.764038	916.846802	-177.838699	-1555.278320	924.708527	-123.404057	-1542.938599	1092.936890	-112.306229	-1245.037354	1060.554688	-109.948219	-1389.941040	673.573303	116.040085	-1458.164673	448.917694	27.017241	-1532.352539	253.698090	63.755589	-1613.060547	69.829216	-39.571800	-1670.215332	72.371994	-90.089493	-1492.173950	41.819485	-80.160103	-1354.961792	637.771667	-342.471802	-1214.982056	475.986694	-235.946350	-1168.173828	302.842590	-287.151459	-1132.514282	73.319756	-197.079117	-1175.172607	54.731758	-146.513123	-995.489197	100.803314	-170.869202
